# xmcd
#
# Track frame offsets:
# 150
# 3832
# 14886
# 24797
# 38760
# 50727
# 63493
# 79832
# 93947
# 106076
# 117819
# 134161
#
# Disc length: 1944 seconds
#
#
# Revision: 0
# Processed by: cddbd v1.5.2PL0 Copyright (c) Steve Scherf et al.
# Submitted via: FreeRIP 2.951 
#
DISCID=9507960c
DTITLE=Johnny Cash - The Gospel Music of Johnny Cash CD2
DYEAR=1900
DGENRE=Gospel
TTITLE0=I Won't Have to Cross Jordan Alone
TTITLE1=The Old Accout Ws Settled Long Before
TTITLE2=Far Side Banks of Jordan
TTITLE3=Farther Along
TTITLE4=Matthew 24 ( Is Knocking At The Door)
TTITLE5=Ragged Old Flag
TTITLE6=Were You There (When They Crucified My Lord)
TTITLE7=It Is No Secret
TTITLE8=Angel Band
TTITLE9=My Children Walk in Truth
TTITLE10=In The Sweet By And By
TTITLE11=God's Hands
EXTD=
EXTT0=
EXTT1=
EXTT2=
EXTT3=
EXTT4=
EXTT5=
EXTT6=
EXTT7=
EXTT8=
EXTT9=
EXTT10=
EXTT11=
PLAYORDER=
